<mxfile host="Electron" modified="2025-04-01T03:17:47.943Z" agent="Mozilla/5.0 (Windows NT 10.0; Win64; x64) AppleWebKit/537.36 (KHTML, like Gecko) draw.io/24.6.4 Chrome/124.0.6367.207 Electron/30.0.6 Safari/537.36" etag="KFrrzaeCw-VGRvJkcnYo" version="24.6.4" type="device">
  <diagram name="Page-1" id="6CH58k_fsuUg8P5rntHp">
    <mxGraphModel dx="1050" dy="621" grid="1" gridSize="10" guides="1" tooltips="1" connect="1" arrows="1" fold="1" page="1" pageScale="1" pageWidth="1100" pageHeight="1700" math="0" shadow="0">
      <root>
        <mxCell id="0" />
        <mxCell id="1" parent="0" />
        <mxCell id="iRQeZpxXH9FuaB11HnjY-26" value="" style="rounded=0;whiteSpace=wrap;html=1;fillColor=#dae8fc;strokeColor=#6c8ebf;" vertex="1" parent="1">
          <mxGeometry x="420" y="200" width="270" height="300" as="geometry" />
        </mxCell>
        <mxCell id="iRQeZpxXH9FuaB11HnjY-13" value="" style="rounded=0;whiteSpace=wrap;html=1;fillColor=#dae8fc;strokeColor=#6c8ebf;" vertex="1" parent="1">
          <mxGeometry x="240" y="200" width="140" height="300" as="geometry" />
        </mxCell>
        <mxCell id="iRQeZpxXH9FuaB11HnjY-11" value="" style="rounded=0;whiteSpace=wrap;html=1;fillColor=#dae8fc;strokeColor=#6c8ebf;" vertex="1" parent="1">
          <mxGeometry x="50" y="200" width="140" height="300" as="geometry" />
        </mxCell>
        <mxCell id="iRQeZpxXH9FuaB11HnjY-32" value="Telecommands" style="edgeStyle=orthogonalEdgeStyle;rounded=0;orthogonalLoop=1;jettySize=auto;html=1;exitX=0.25;exitY=0;exitDx=0;exitDy=0;entryX=0.75;entryY=0;entryDx=0;entryDy=0;" edge="1" parent="1" source="iRQeZpxXH9FuaB11HnjY-1" target="iRQeZpxXH9FuaB11HnjY-7">
          <mxGeometry relative="1" as="geometry">
            <Array as="points">
              <mxPoint x="525" y="170" />
              <mxPoint x="340" y="170" />
            </Array>
          </mxGeometry>
        </mxCell>
        <mxCell id="iRQeZpxXH9FuaB11HnjY-1" value="YAMCS server" style="rounded=0;whiteSpace=wrap;html=1;" vertex="1" parent="1">
          <mxGeometry x="495" y="210" width="120" height="100" as="geometry" />
        </mxCell>
        <mxCell id="iRQeZpxXH9FuaB11HnjY-22" style="edgeStyle=orthogonalEdgeStyle;rounded=0;orthogonalLoop=1;jettySize=auto;html=1;exitX=0.5;exitY=1;exitDx=0;exitDy=0;exitPerimeter=0;entryX=0.5;entryY=1;entryDx=0;entryDy=0;" edge="1" parent="1" source="iRQeZpxXH9FuaB11HnjY-3" target="iRQeZpxXH9FuaB11HnjY-21">
          <mxGeometry relative="1" as="geometry" />
        </mxCell>
        <mxCell id="iRQeZpxXH9FuaB11HnjY-3" value="CSV&lt;br&gt;Mission&lt;div&gt;databases&lt;/div&gt;" style="shape=cylinder3;whiteSpace=wrap;html=1;boundedLbl=1;backgroundOutline=1;size=15;" vertex="1" parent="1">
          <mxGeometry x="180" y="550" width="60" height="80" as="geometry" />
        </mxCell>
        <mxCell id="iRQeZpxXH9FuaB11HnjY-18" value="Config" style="edgeStyle=orthogonalEdgeStyle;rounded=0;orthogonalLoop=1;jettySize=auto;html=1;exitX=0.5;exitY=1;exitDx=0;exitDy=0;entryX=0.5;entryY=0;entryDx=0;entryDy=0;" edge="1" parent="1" source="iRQeZpxXH9FuaB11HnjY-7" target="iRQeZpxXH9FuaB11HnjY-15">
          <mxGeometry relative="1" as="geometry" />
        </mxCell>
        <mxCell id="iRQeZpxXH9FuaB11HnjY-33" style="edgeStyle=orthogonalEdgeStyle;rounded=0;orthogonalLoop=1;jettySize=auto;html=1;exitX=0.75;exitY=0;exitDx=0;exitDy=0;entryX=0.75;entryY=0;entryDx=0;entryDy=0;jumpStyle=arc;" edge="1" parent="1" source="iRQeZpxXH9FuaB11HnjY-7" target="iRQeZpxXH9FuaB11HnjY-8">
          <mxGeometry relative="1" as="geometry">
            <Array as="points">
              <mxPoint x="340" y="170" />
              <mxPoint x="150" y="170" />
            </Array>
          </mxGeometry>
        </mxCell>
        <mxCell id="iRQeZpxXH9FuaB11HnjY-36" style="edgeStyle=orthogonalEdgeStyle;rounded=0;orthogonalLoop=1;jettySize=auto;html=1;exitX=0.25;exitY=0;exitDx=0;exitDy=0;entryX=0.75;entryY=0;entryDx=0;entryDy=0;" edge="1" parent="1" source="iRQeZpxXH9FuaB11HnjY-7" target="iRQeZpxXH9FuaB11HnjY-1">
          <mxGeometry relative="1" as="geometry">
            <Array as="points">
              <mxPoint x="280" y="130" />
              <mxPoint x="585" y="130" />
            </Array>
          </mxGeometry>
        </mxCell>
        <mxCell id="iRQeZpxXH9FuaB11HnjY-37" style="edgeStyle=orthogonalEdgeStyle;rounded=0;orthogonalLoop=1;jettySize=auto;html=1;exitX=0.5;exitY=0;exitDx=0;exitDy=0;entryX=0.5;entryY=0;entryDx=0;entryDy=0;jumpStyle=arc;" edge="1" parent="1" source="iRQeZpxXH9FuaB11HnjY-7" target="iRQeZpxXH9FuaB11HnjY-1">
          <mxGeometry relative="1" as="geometry">
            <Array as="points">
              <mxPoint x="310" y="150" />
              <mxPoint x="555" y="150" />
            </Array>
          </mxGeometry>
        </mxCell>
        <mxCell id="iRQeZpxXH9FuaB11HnjY-7" value="YAMCS link demo application" style="rounded=0;whiteSpace=wrap;html=1;" vertex="1" parent="1">
          <mxGeometry x="250" y="210" width="120" height="100" as="geometry" />
        </mxCell>
        <mxCell id="iRQeZpxXH9FuaB11HnjY-16" value="build artifacts" style="edgeStyle=orthogonalEdgeStyle;rounded=0;orthogonalLoop=1;jettySize=auto;html=1;exitX=0.5;exitY=1;exitDx=0;exitDy=0;entryX=0.5;entryY=0;entryDx=0;entryDy=0;" edge="1" parent="1" source="iRQeZpxXH9FuaB11HnjY-8" target="iRQeZpxXH9FuaB11HnjY-10">
          <mxGeometry relative="1" as="geometry" />
        </mxCell>
        <mxCell id="iRQeZpxXH9FuaB11HnjY-34" value="Events" style="edgeStyle=orthogonalEdgeStyle;rounded=0;orthogonalLoop=1;jettySize=auto;html=1;exitX=0.5;exitY=0;exitDx=0;exitDy=0;entryX=0.5;entryY=0;entryDx=0;entryDy=0;jumpStyle=arc;" edge="1" parent="1" source="iRQeZpxXH9FuaB11HnjY-8" target="iRQeZpxXH9FuaB11HnjY-1">
          <mxGeometry x="0.1892" relative="1" as="geometry">
            <Array as="points">
              <mxPoint x="120" y="150" />
              <mxPoint x="555" y="150" />
            </Array>
            <mxPoint as="offset" />
          </mxGeometry>
        </mxCell>
        <mxCell id="iRQeZpxXH9FuaB11HnjY-35" value="Telemetry" style="edgeStyle=orthogonalEdgeStyle;rounded=0;orthogonalLoop=1;jettySize=auto;html=1;exitX=0.25;exitY=0;exitDx=0;exitDy=0;entryX=0.75;entryY=0;entryDx=0;entryDy=0;jumpStyle=arc;" edge="1" parent="1" source="iRQeZpxXH9FuaB11HnjY-8" target="iRQeZpxXH9FuaB11HnjY-1">
          <mxGeometry relative="1" as="geometry">
            <Array as="points">
              <mxPoint x="90" y="130" />
              <mxPoint x="585" y="130" />
            </Array>
          </mxGeometry>
        </mxCell>
        <mxCell id="iRQeZpxXH9FuaB11HnjY-8" value="Fprime demo&lt;div&gt;application&lt;/div&gt;" style="rounded=0;whiteSpace=wrap;html=1;" vertex="1" parent="1">
          <mxGeometry x="60" y="210" width="120" height="100" as="geometry" />
        </mxCell>
        <mxCell id="iRQeZpxXH9FuaB11HnjY-9" value="Yamcs&amp;nbsp;&lt;div&gt;mdb&amp;nbsp;&lt;/div&gt;&lt;div&gt;generator&lt;/div&gt;" style="rounded=0;whiteSpace=wrap;html=1;" vertex="1" parent="1">
          <mxGeometry x="60" y="440" width="120" height="50" as="geometry" />
        </mxCell>
        <mxCell id="iRQeZpxXH9FuaB11HnjY-17" value="Config" style="edgeStyle=orthogonalEdgeStyle;rounded=0;orthogonalLoop=1;jettySize=auto;html=1;exitX=0.5;exitY=1;exitDx=0;exitDy=0;entryX=0.5;entryY=0;entryDx=0;entryDy=0;" edge="1" parent="1" source="iRQeZpxXH9FuaB11HnjY-10" target="iRQeZpxXH9FuaB11HnjY-9">
          <mxGeometry relative="1" as="geometry" />
        </mxCell>
        <mxCell id="iRQeZpxXH9FuaB11HnjY-10" value="fprime2yamcs" style="rounded=0;whiteSpace=wrap;html=1;" vertex="1" parent="1">
          <mxGeometry x="60" y="350" width="120" height="50" as="geometry" />
        </mxCell>
        <mxCell id="iRQeZpxXH9FuaB11HnjY-12" value="Fprime demo&amp;nbsp;&lt;span style=&quot;background-color: initial;&quot;&gt;Docker container&lt;/span&gt;" style="text;html=1;align=center;verticalAlign=middle;resizable=0;points=[];autosize=1;strokeColor=none;fillColor=none;rotation=-90;" vertex="1" parent="1">
          <mxGeometry x="-60" y="400" width="190" height="30" as="geometry" />
        </mxCell>
        <mxCell id="iRQeZpxXH9FuaB11HnjY-15" value="Yamcs&amp;nbsp;&lt;div&gt;mdb&amp;nbsp;&lt;/div&gt;&lt;div&gt;generator&lt;/div&gt;" style="rounded=0;whiteSpace=wrap;html=1;" vertex="1" parent="1">
          <mxGeometry x="250" y="440" width="120" height="50" as="geometry" />
        </mxCell>
        <mxCell id="iRQeZpxXH9FuaB11HnjY-19" style="edgeStyle=orthogonalEdgeStyle;rounded=0;orthogonalLoop=1;jettySize=auto;html=1;exitX=0.5;exitY=1;exitDx=0;exitDy=0;entryX=0.145;entryY=0;entryDx=0;entryDy=4.35;entryPerimeter=0;" edge="1" parent="1" source="iRQeZpxXH9FuaB11HnjY-9" target="iRQeZpxXH9FuaB11HnjY-3">
          <mxGeometry relative="1" as="geometry" />
        </mxCell>
        <mxCell id="iRQeZpxXH9FuaB11HnjY-20" style="edgeStyle=orthogonalEdgeStyle;rounded=0;orthogonalLoop=1;jettySize=auto;html=1;exitX=0.5;exitY=1;exitDx=0;exitDy=0;entryX=0.855;entryY=0;entryDx=0;entryDy=4.35;entryPerimeter=0;" edge="1" parent="1" source="iRQeZpxXH9FuaB11HnjY-15" target="iRQeZpxXH9FuaB11HnjY-3">
          <mxGeometry relative="1" as="geometry" />
        </mxCell>
        <mxCell id="iRQeZpxXH9FuaB11HnjY-23" value="XLS mission&lt;div&gt;databases&lt;/div&gt;" style="edgeStyle=orthogonalEdgeStyle;rounded=0;orthogonalLoop=1;jettySize=auto;html=1;exitX=0.5;exitY=0;exitDx=0;exitDy=0;entryX=0.5;entryY=1;entryDx=0;entryDy=0;" edge="1" parent="1" source="iRQeZpxXH9FuaB11HnjY-21" target="iRQeZpxXH9FuaB11HnjY-1">
          <mxGeometry relative="1" as="geometry" />
        </mxCell>
        <mxCell id="iRQeZpxXH9FuaB11HnjY-21" value="mkmdb" style="rounded=0;whiteSpace=wrap;html=1;" vertex="1" parent="1">
          <mxGeometry x="560" y="440" width="120" height="50" as="geometry" />
        </mxCell>
        <mxCell id="iRQeZpxXH9FuaB11HnjY-24" value="waitforfiles" style="rounded=0;whiteSpace=wrap;html=1;" vertex="1" parent="1">
          <mxGeometry x="430" y="440" width="120" height="50" as="geometry" />
        </mxCell>
        <mxCell id="iRQeZpxXH9FuaB11HnjY-25" style="edgeStyle=orthogonalEdgeStyle;rounded=0;orthogonalLoop=1;jettySize=auto;html=1;exitX=0.5;exitY=1;exitDx=0;exitDy=0;entryX=1;entryY=0.5;entryDx=0;entryDy=0;entryPerimeter=0;dashed=1;endArrow=none;endFill=0;" edge="1" parent="1" source="iRQeZpxXH9FuaB11HnjY-24" target="iRQeZpxXH9FuaB11HnjY-3">
          <mxGeometry relative="1" as="geometry" />
        </mxCell>
        <mxCell id="iRQeZpxXH9FuaB11HnjY-28" value="YAMCS link demo&amp;nbsp;&lt;span style=&quot;background-color: initial;&quot;&gt;Docker container&lt;/span&gt;" style="text;html=1;align=center;verticalAlign=middle;resizable=0;points=[];autosize=1;strokeColor=none;fillColor=none;rotation=-90;" vertex="1" parent="1">
          <mxGeometry x="120" y="380" width="210" height="30" as="geometry" />
        </mxCell>
        <mxCell id="iRQeZpxXH9FuaB11HnjY-29" value="YAMCS server Docker container" style="text;html=1;align=center;verticalAlign=middle;resizable=0;points=[];autosize=1;strokeColor=none;fillColor=none;rotation=-90;" vertex="1" parent="1">
          <mxGeometry x="310" y="390" width="200" height="30" as="geometry" />
        </mxCell>
        <mxCell id="iRQeZpxXH9FuaB11HnjY-38" value="" style="shape=curlyBracket;whiteSpace=wrap;html=1;rounded=1;flipH=1;labelPosition=right;verticalLabelPosition=middle;align=left;verticalAlign=middle;" vertex="1" parent="1">
          <mxGeometry x="730" y="110" width="20" height="90" as="geometry" />
        </mxCell>
        <mxCell id="iRQeZpxXH9FuaB11HnjY-39" value="" style="shape=curlyBracket;whiteSpace=wrap;html=1;rounded=1;flipH=1;labelPosition=right;verticalLabelPosition=middle;align=left;verticalAlign=middle;" vertex="1" parent="1">
          <mxGeometry x="730" y="200" width="20" height="300" as="geometry" />
        </mxCell>
        <mxCell id="iRQeZpxXH9FuaB11HnjY-40" value="" style="shape=curlyBracket;whiteSpace=wrap;html=1;rounded=1;flipH=1;labelPosition=right;verticalLabelPosition=middle;align=left;verticalAlign=middle;" vertex="1" parent="1">
          <mxGeometry x="730" y="500" width="20" height="120" as="geometry" />
        </mxCell>
        <mxCell id="iRQeZpxXH9FuaB11HnjY-41" value="Host network" style="text;html=1;align=center;verticalAlign=middle;resizable=0;points=[];autosize=1;strokeColor=none;fillColor=none;" vertex="1" parent="1">
          <mxGeometry x="750" y="140" width="90" height="30" as="geometry" />
        </mxCell>
        <mxCell id="iRQeZpxXH9FuaB11HnjY-42" value="Docker containers" style="text;html=1;align=center;verticalAlign=middle;resizable=0;points=[];autosize=1;strokeColor=none;fillColor=none;" vertex="1" parent="1">
          <mxGeometry x="750" y="335" width="120" height="30" as="geometry" />
        </mxCell>
        <mxCell id="iRQeZpxXH9FuaB11HnjY-44" value="Shared volume" style="text;html=1;align=center;verticalAlign=middle;resizable=0;points=[];autosize=1;strokeColor=none;fillColor=none;" vertex="1" parent="1">
          <mxGeometry x="750" y="545" width="100" height="30" as="geometry" />
        </mxCell>
      </root>
    </mxGraphModel>
  </diagram>
</mxfile>
